<?xml version="1.0" standalone="no"?>
<!DOCTYPE svg PUBLIC "-//W3C//DTD SVG 20010904//EN"
 "http://www.w3.org/TR/2001/REC-SVG-20010904/DTD/svg10.dtd">
<svg version="1.0" xmlns="http://www.w3.org/2000/svg"
 width="1000.000000pt" height="1000.000000pt" viewBox="0 0 1000.000000 1000.000000"
 preserveAspectRatio="xMidYMid meet">
<metadata>
Created by potrace 1.14, written by Peter Selinger 2001-2017
</metadata>
<g transform="translate(0.000000,1000.000000) scale(0.100000,-0.100000)"
fill="#000000" stroke="none">
<path d="M4495 8391 c-16 -4 -48 -17 -70 -28 -78 -40 -268 -163 -280 -180 -16
-24 -48 -277 -41 -319 4 -20 31 -62 70 -108 72 -84 91 -127 106 -239 21 -162
38 -172 295 -171 240 2 256 6 307 91 53 88 78 169 78 253 0 62 4 76 33 120
l32 49 1528 0 1527 1 0 -880 0 -880 -1086 0 -1086 0 6 -42 c3 -24 10 -117 16
-208 6 -91 13 -180 16 -197 l5 -33 88 0 87 0 -22 -137 c-13 -76 -23 -141 -24
-144 0 -3 -26 -19 -58 -35 l-59 -29 -6 -125 c-3 -69 -11 -140 -17 -158 -13
-36 -71 -80 -145 -112 -48 -20 -51 -26 -35 -62 5 -13 17 -49 25 -80 l16 -58
510 0 509 0 0 -1075 0 -1074 -27 4 c-43 7 -515 33 -828 46 -154 6 -283 14
-286 17 -3 4 -13 43 -22 87 -16 78 -16 85 8 265 14 102 27 197 30 212 l4 27
-72 -39 c-117 -62 -297 -110 -470 -126 -42 -4 -81 -12 -85 -18 -5 -6 -14 -60
-21 -119 -20 -164 -26 -177 -34 -68 -4 52 -7 116 -7 143 l0 48 -127 -6 c-71
-4 -129 -7 -130 -8 0 0 9 -89 21 -197 l22 -196 -156 -6 c-85 -4 -203 -7 -263
-7 l-107 0 5 53 c10 92 33 372 31 374 -3 3 -160 21 -163 19 0 0 -4 -93 -8
-206 -3 -113 -8 -215 -11 -227 -4 -21 -10 -23 -67 -23 l-62 0 -22 157 c-38
272 -52 332 -77 338 -260 54 -435 128 -534 224 -61 59 -70 86 -87 241 -39 375
-43 696 -10 944 8 61 12 112 10 115 -10 10 -61 -37 -83 -76 -43 -78 -40 -258
14 -683 31 -247 122 -803 175 -1069 23 -112 37 -207 32 -212 -7 -7 -224 -29
-289 -29 l-24 0 0 1075 0 1075 99 0 99 0 20 67 21 67 -37 44 c-83 97 -113 140
-139 190 -24 49 -25 59 -20 143 l7 89 -195 0 -195 0 0 510 0 510 -470 0 -470
0 0 -510 0 -510 -70 0 -70 0 -388 -199 -387 -200 -3 -100 -3 -101 99 0 99 0 7
-312 c3 -172 8 -639 11 -1038 3 -399 8 -806 11 -906 l6 -181 -109 -28 c-184
-48 -392 -123 -532 -192 -112 -55 -145 -77 -201 -132 -51 -51 -69 -77 -80
-113 -24 -90 10 -167 125 -276 422 -406 1712 -823 3075 -996 1219 -155 2400
-136 3545 55 1034 173 1984 488 2495 829 47 31 112 72 145 90 33 19 87 61 121
94 91 92 103 158 48 267 -27 55 -66 90 -145 130 -33 16 -59 33 -59 37 0 10 48
361 55 399 l6 33 -166 2 -165 3 50 78 c27 42 48 77 45 77 -2 0 -26 -32 -54
-72 l-51 -72 0 115 0 114 65 119 c36 66 64 121 62 122 -2 2 -30 -40 -62 -93
l-60 -97 -3 45 c-2 37 5 61 43 134 48 95 46 96 -11 5 l-35 -55 3 95 3 95 48
70 49 70 -46 -50 -46 -49 -1 99 -2 100 -8 -134 c-4 -73 -10 -138 -11 -143 -2
-6 -23 19 -47 56 -24 36 -45 66 -48 66 -2 0 19 -43 48 -96 l52 -96 -9 -101 -9
-100 -49 72 c-27 39 -51 71 -53 71 -5 0 2 -12 47 -80 62 -93 61 -89 50 -202
-6 -57 -13 -118 -16 -135 l-5 -33 -144 0 -144 0 4 -27 c3 -16 12 -64 20 -107
8 -44 13 -81 11 -84 -7 -6 -156 31 -170 43 -10 8 -10 237 0 1115 7 608 13
1149 13 1203 l1 97 230 0 230 0 0 69 0 68 -342 231 -343 231 -778 1 -777 0
-54 30 -53 30 -17 113 c-9 61 -19 124 -22 139 l-5 28 610 2 611 3 32 33 33 32
2 1098 c2 865 0 1102 -10 1122 -7 13 -28 35 -46 47 l-34 23 -1522 0 -1522 0
-6 71 c-14 169 -138 293 -332 334 -74 15 -160 18 -210 6z m2025 -491 c0 -13
-7 -20 -20 -20 -13 0 -20 7 -20 20 0 13 7 20 20 20 13 0 20 -7 20 -20z m-3900
-2160 l0 -380 -330 0 -330 0 0 380 0 380 330 0 330 0 0 -380z m3935 95 c16
-15 25 -36 25 -55 0 -19 -9 -40 -25 -55 -15 -16 -36 -25 -55 -25 -19 0 -40 9
-55 25 -16 15 -25 36 -25 55 0 19 9 40 25 55 15 16 36 25 55 25 19 0 40 -9 55
-25z m515 -765 c0 -5 -22 -10 -50 -10 -27 0 -50 5 -50 10 0 6 23 10 50 10 28
0 50 -4 50 -10z"/>
<path d="M2123 5973 c2 -5 37 -66 77 -138 40 -71 77 -136 83 -143 8 -11 83
108 163 261 l15 27 -53 0 -53 0 -29 -55 c-16 -30 -31 -55 -35 -55 -4 0 -20 25
-36 55 l-30 55 -53 0 c-29 0 -51 -3 -49 -7z"/>
<path d="M5462 7501 c-217 -75 -292 -353 -141 -525 153 -175 435 -140 538 65
39 79 47 148 27 229 -48 188 -242 294 -424 231z m292 -114 c23 -17 17 -52 -9
-52 -14 0 -20 7 -20 24 -1 56 -56 21 -74 -46 -13 -44 -14 -83 -3 -83 31 1 51
14 49 33 -1 13 5 23 16 25 25 5 22 -33 -5 -52 -12 -9 -34 -16 -49 -16 -25 0
-28 -5 -43 -74 -31 -138 -132 -230 -195 -178 -20 16 -22 22 -12 40 14 26 33
28 51 7 10 -12 10 -18 0 -30 -18 -22 13 -20 35 2 23 22 33 53 56 163 l19 95
-26 23 c-31 27 -77 27 -82 -1 -2 -9 8 -31 22 -48 49 -58 23 -121 -49 -121 -47
0 -85 25 -85 58 0 21 4 25 23 22 17 -2 22 -10 22 -33 0 -33 25 -45 50 -25 20
17 19 24 -12 60 -71 85 15 170 109 107 l34 -24 27 49 c41 73 108 107 151 75z"/>
<path d="M6901 7411 c-10 -10 -22 -37 -26 -60 -6 -35 -10 -41 -32 -41 -32 0
-28 -34 4 -38 21 -3 22 -9 25 -105 3 -94 4 -102 23 -102 19 0 20 8 23 103 l3
102 28 0 c24 0 41 15 41 36 0 2 -16 4 -35 4 -32 0 -35 3 -35 29 0 31 13 47 45
53 11 2 21 11 23 21 5 25 -61 24 -87 -2z"/>
<path d="M6020 7413 c-34 -13 -60 -47 -60 -80 0 -48 14 -70 63 -94 89 -45 110
-90 60 -129 -22 -17 -36 -20 -69 -15 -44 6 -66 -7 -46 -27 16 -16 105 -12 139
5 57 30 67 111 20 155 -12 11 -41 29 -65 41 -85 43 -76 111 15 111 36 0 43 3
43 20 0 17 -6 20 -42 19 -24 0 -50 -3 -58 -6z"/>
<path d="M6535 7313 c-11 -3 -28 -12 -37 -21 -16 -14 -18 -14 -18 1 0 10 -8
17 -20 17 -19 0 -20 -7 -20 -125 0 -116 1 -125 19 -125 25 0 31 19 31 104 0
59 4 76 20 94 12 12 29 22 39 22 34 0 45 -28 49 -127 4 -80 7 -94 21 -91 13 3
17 21 21 92 5 77 9 91 29 107 28 23 45 24 65 3 12 -12 16 -37 16 -110 0 -93 1
-95 23 -92 21 3 22 8 25 93 2 100 -8 133 -50 153 -32 15 -68 8 -97 -19 -16
-15 -22 -16 -28 -5 -9 14 -47 37 -60 35 -4 -1 -17 -4 -28 -6z"/>
<path d="M7085 7313 c-58 -15 -102 -88 -90 -150 24 -131 204 -143 245 -16 22
65 -8 132 -71 157 -40 16 -50 17 -84 9z m82 -57 c23 -20 28 -32 28 -71 0 -39
-5 -51 -28 -71 -15 -13 -37 -24 -47 -24 -10 0 -32 11 -47 24 -23 20 -28 32
-28 71 0 39 5 51 28 71 15 13 37 24 47 24 10 0 32 -11 47 -24z"/>
<path d="M7368 7301 c-30 -15 -38 -16 -38 -5 0 8 -9 14 -20 14 -19 0 -20 -7
-20 -126 0 -114 2 -125 18 -122 14 3 18 19 24 88 6 75 10 88 33 108 32 27 56
28 78 4 13 -15 17 -39 17 -111 0 -90 1 -92 23 -89 21 3 22 7 22 105 0 89 -3
105 -20 122 -31 30 -74 34 -117 12z"/>
<path d="M6175 7293 c4 -10 26 -70 48 -134 40 -113 41 -116 24 -142 -10 -15
-26 -27 -36 -27 -19 0 -35 -23 -24 -34 4 -3 17 -6 29 -6 46 0 72 39 129 199
30 84 55 155 55 158 0 2 -10 3 -22 1 -19 -2 -29 -20 -57 -103 l-35 -100 -32
100 c-30 92 -35 100 -60 103 -22 3 -26 1 -19 -15z"/>
<path d="M7571 7198 c23 -62 44 -126 47 -141 5 -31 -20 -67 -48 -67 -18 0 -33
-23 -23 -34 4 -3 17 -6 29 -6 45 0 72 39 123 180 69 193 67 182 40 178 -18 -2
-27 -18 -51 -88 -15 -47 -31 -92 -34 -100 -4 -9 -20 27 -38 85 -29 92 -34 100
-59 103 l-27 3 41 -113z"/>
<path d="M3646 5224 c-10 -31 -16 -58 -13 -60 2 -2 22 -1 43 4 27 6 39 13 38
25 0 9 -1 33 -2 52 -2 29 -6 35 -25 35 -20 0 -26 -9 -41 -56z"/>
<path d="M5853 4310 c0 -25 2 -35 4 -22 2 12 2 32 0 45 -2 12 -4 2 -4 -23z"/>
</g>
</svg>
